<svg width="20" height="16" viewBox="0 0 20 16" fill="none" xmlns="http://www.w3.org/2000/svg">
<path d="M13.64 7.0198C14.19 5.5498 15.07 4.2398 16.2 3.1898C16.58 2.8298 16.24 2.1898 15.74 2.3398C12.42 3.3198 9.99 6.3898 10 10.0298C10.95 8.7498 12.2 7.7198 13.64 7.0198ZM9.42 4.8498C8.82 3.2898 7.79 1.9398 6.46 0.979795C6.04 0.679795 5.5 1.1698 5.74 1.6298C6.54 3.1498 7 4.8798 7 6.7098C7 6.9198 6.97 7.1198 6.96 7.3198C7.39 7.55979 7.79 7.8398 8.18 8.1398C8.39 6.9598 8.83 5.8498 9.42 4.8498ZM10 15.9998H1C0.45 15.9998 0 15.5498 0 14.9998C0 14.4498 0.45 13.9998 1 13.9998H5.75C5.18 11.8098 3.71 9.9798 1.75 8.9398C1.59 8.8598 1.49 8.6898 1.49 8.4998C1.49 8.2298 1.71 8.0098 1.98 7.9998C1.99 7.9998 2 7.9998 2 7.9998C6.42 7.9998 10 11.5798 10 15.9998ZM18.26 8.9398C16.3 9.9798 14.82 11.8098 14.26 13.9998H19C19.55 13.9998 20 14.4498 20 14.9998C20 15.5498 19.55 15.9998 19 15.9998H12C12 15.3198 11.93 14.6498 11.8 13.9998C11.65 13.2798 11.42 12.5798 11.13 11.9298C12.52 9.5798 15.07 7.9998 18 7.9998C18.01 7.9998 18.02 7.9998 18.02 7.9998C18.29 7.9998 18.51 8.2298 18.51 8.4998C18.52 8.6898 18.41 8.8498 18.26 8.9398Z" fill="black" fill-opacity="0.54"/>
</svg>
